<svg width="259" height="264" viewBox="0 0 259 264" fill="none" xmlns="http://www.w3.org/2000/svg">
<path d="M102.151 89.5909L209.999 65.6247L317.847 89.5909C320.762 90.2388 323.368 91.8611 325.237 94.19C327.105 96.5189 328.124 99.4152 328.124 102.401V233.48C328.123 246.444 324.922 259.208 318.804 270.637C312.686 282.067 303.841 291.81 293.054 299L209.999 354.375L126.944 299C116.159 291.811 107.315 282.07 101.197 270.643C95.0796 259.216 91.8771 246.455 91.874 233.493V102.401C91.8745 99.4152 92.893 96.5189 94.7614 94.19C96.6298 91.8611 99.2363 90.2388 102.151 89.5909ZM196.874 183.75H157.499V210H196.874V249.375H223.124V210H262.499V183.75H223.124V144.375H196.874V183.75Z" fill="#474747"/>
</svg>
