<svg width="258" height="264" viewBox="0 0 258 264" fill="none" xmlns="http://www.w3.org/2000/svg">
<path d="M105 315V236.25C105 208.402 116.062 181.695 135.754 162.004C155.445 142.312 182.152 131.25 210 131.25C237.848 131.25 264.555 142.312 284.246 162.004C303.938 181.695 315 208.402 315 236.25V315H328.125V341.25H91.875V315H105ZM131.25 236.25H157.5C157.5 222.326 163.031 208.973 172.877 199.127C182.723 189.281 196.076 183.75 210 183.75V157.5C189.114 157.5 169.084 165.797 154.315 180.565C139.547 195.334 131.25 215.364 131.25 236.25ZM196.875 78.75H223.125V118.125H196.875V78.75ZM312.086 115.605L330.645 134.164L302.82 162.002L284.248 143.443L312.086 115.605ZM89.355 134.164L107.914 115.605L135.752 143.43L117.206 162.015L89.355 134.164Z" fill="#474747"/>
</svg>
