<svg width="258" height="264" viewBox="0 0 258 264" fill="none" xmlns="http://www.w3.org/2000/svg">
<path d="M122.456 95.4319C130.647 92.5099 139.499 91.9729 147.982 93.8832C156.466 95.7935 164.234 100.073 170.381 106.223C176.529 112.374 180.805 120.143 182.711 128.628C184.618 137.112 184.077 145.964 181.151 154.153L323.492 296.494L295.641 324.332L153.3 182.004C145.109 184.926 136.258 185.463 127.774 183.553C119.29 181.643 111.523 177.364 105.375 171.213C99.227 165.063 94.9513 157.293 93.0448 148.809C91.1383 140.324 91.6793 131.472 94.6049 123.283L123.952 152.644C125.769 154.524 127.941 156.024 130.343 157.056C132.745 158.088 135.328 158.631 137.942 158.653C140.556 158.676 143.149 158.178 145.568 157.188C147.988 156.198 150.186 154.736 152.035 152.888C153.883 151.039 155.345 148.841 156.335 146.422C157.325 144.002 157.823 141.41 157.8 138.796C157.777 136.181 157.234 133.598 156.203 131.196C155.171 128.794 153.671 126.622 151.791 124.806L122.443 95.4188L122.456 95.4319ZM258.523 120.159L300.287 96.9544L318.846 115.513L295.641 157.277L272.436 161.923L244.611 189.761L226.039 171.203L253.877 143.364L258.523 120.159ZM165.716 222.246L193.554 250.097L128.586 315.066C125.003 318.615 120.195 320.654 115.153 320.762C110.111 320.871 105.22 319.04 101.488 315.648C97.7565 312.256 95.4685 307.562 95.0962 302.533C94.7239 297.503 96.2957 292.523 99.4874 288.619L100.761 287.214L165.729 222.246H165.716Z" fill="#474747"/>
</svg>
